<?xml version="1.0" encoding="UTF-8" standalone="no"?>
<!-- Created with Inkscape (http://www.inkscape.org/) -->

<svg
   version="1.1"
   id="svg1"
   width="640"
   height="640"
   viewBox="0 0 640 640"
   sodipodi:docname="aaaa.svg"
   inkscape:version="1.4.2 (ebf0e940, 2025-05-08)"
   xml:space="preserve"
   xmlns:inkscape="http://www.inkscape.org/namespaces/inkscape"
   xmlns:sodipodi="http://sodipodi.sourceforge.net/DTD/sodipodi-0.dtd"
   xmlns="http://www.w3.org/2000/svg"
   xmlns:svg="http://www.w3.org/2000/svg"><defs
     id="defs1" /><sodipodi:namedview
     id="namedview1"
     pagecolor="#ffffff"
     bordercolor="#000000"
     borderopacity="0.25"
     inkscape:showpageshadow="2"
     inkscape:pageopacity="0.0"
     inkscape:pagecheckerboard="0"
     inkscape:deskcolor="#d1d1d1"
     showgrid="false"
     inkscape:zoom="0.746885"
     inkscape:cx="246.35653"
     inkscape:cy="329.36798"
     inkscape:window-width="1440"
     inkscape:window-height="791"
     inkscape:window-x="0"
     inkscape:window-y="25"
     inkscape:window-maximized="1"
     inkscape:current-layer="g1" /><g
     inkscape:groupmode="layer"
     inkscape:label="Image"
     id="g1"><g
       id="g28"
       transform="matrix(1.6080841,0,0,1.6080841,-186.08078,-166.13965)"><path
         id="path2"
         style="fill:#e52121;fill-opacity:1;stroke:#e52121;stroke-width:32;stroke-linecap:round;stroke-linejoin:round;stroke-dasharray:none"
         d="M 149.67862,422.67419 154.05354,376.91851 155.35984,334.9758 156.26012,304.47202 155.39514,243.46444 155.36278,216.77363 157.30457,174.83092 V 148.1401 L 161.11754,167.20497 C 155.30294,152.09917 160.02104,148.31523 183.99538,136.70118 L 164.93052,140.51416 183.99538,136.70118 H 367.01811 L 370.83109,132.88821 C 382.21066,141.11252 422.06428,136.50779 439.46461,136.7159 451.61064,136.86118 468.15614,134.54207 477.77384,146.4778 487.06077,158.00304 480.61626,179.48127 484.117,193.89578 491.76255,225.37683 482.14904,264.1304 481.89866,296.84607 481.65447,328.7536 485.90285,360.70872 485.90285,392.1704 485.90285,419.45109 494.97419,443.88813 468.19724,461.70716 452.21226,472.34452 402.4704,466.10212 382.27001,465.24357 336.22147,463.28638 290.47876,469.85057 245.00296,468.36221 216.29333,467.42258 192.51165,457.98341 164.93052,464.6169 L 149.67862,441.73906 M 145.86565,151.95308 H 153.4916 M 153.4916,167.20497 161.11754,171.01794 M 145.86565,190.08281 H 153.4916 M 145.86565,331.16283 H 153.4916 M 145.86565,350.2277 H 149.67862 M 157.30457,376.91851 V 380.73148 M 157.30457,426.48716 V 441.73906 M 145.86565,437.92608 149.67862,441.73906 M 454.7165,464.6169 H 469.9684" /><path
         id="path8"
         style="fill:none;stroke:#ffffff;stroke-width:17;stroke-linecap:round;stroke-linejoin:round;stroke-dasharray:none"
         d="M 394.67701,160.38663 C 399.71421,186.36153 421.54267,195.76601 448.98369,208.83203 M 220.88334,176.14477 C 220.88334,217.2182 220.17229,259.9686 232.9515,292.41372 255.23042,260.94663 267.01274,221.06546 269.15595,180.9893 M 245.01965,180.9893 238.98557,239.12379 M 394.67701,179.76478 340.37032,208.83203 M 196.74704,195.52293 190.71297,297.25827 M 287.25818,200.36747 281.22411,263.34648 M 364.50663,223.36565 C 365.9877,242.70509 387.59182,300.19596 416.04773,256.61953 423.19731,245.6709 422.83477,235.34452 424.84738,223.36565 M 370.5407,233.05473 H 418.81331 M 232.9515,292.41372 C 233.43685,327.3701 261.11442,365.82621 293.29226,394.14905 M 340.37032,451.05902 C 340.72899,416.27201 340.7173,362.53821 347.29833,330.03898 352.29886,305.34468 410.9306,296.49383 433.27462,310.70194 463.51639,329.93207 441.40234,413.42812 448.98369,446.21447 M 226.91743,331.17004 C 218.63545,358.77893 214.84927,404.42479 214.84927,442.59446 M 376.57477,334.79007 C 376.97331,341.5319 376.49895,410.36266 403.22062,393.45534 421.20476,382.07642 411.82141,350.99278 412.77924,334.79007 M 382.60886,354.16822 H 406.74515" /></g></g></svg>
