<!--?xml version="1.0" encoding="UTF-8" standalone="no"?-->
<!-- Created with Inkscape (http://www.inkscape.org/) -->

<svg width="150mm" height="150mm" viewBox="0 0 150 150" version="1.1" id="svg1" xml:space="preserve" inkscape:version="1.4.2 (ebf0e940, 2025-05-08)" sodipodi:docname="face.svg" inkscape:export-filename="/Users/gofeel/Downloads/face.pdf" inkscape:export-xdpi="96" inkscape:export-ydpi="96" xmlns:inkscape="http://www.inkscape.org/namespaces/inkscape" xmlns:sodipodi="http://sodipodi.sourceforge.net/DTD/sodipodi-0.dtd" xmlns="http://www.w3.org/2000/svg" xmlns:svg="http://www.w3.org/2000/svg" style=""><sodipodi:namedview id="namedview1" pagecolor="#ffffff" bordercolor="#000000" borderopacity="0.25" inkscape:showpageshadow="2" inkscape:pageopacity="0.0" inkscape:pagecheckerboard="0" inkscape:deskcolor="#d1d1d1" inkscape:document-units="mm" inkscape:zoom="1.1488525" inkscape:cx="270.26968" inkscape:cy="305.08703" inkscape:window-width="1432" inkscape:window-height="970" inkscape:window-x="2438" inkscape:window-y="153" inkscape:window-maximized="0" inkscape:current-layer="layer1"></sodipodi:namedview><defs id="defs1"></defs><g inkscape:label="Layer 1" inkscape:groupmode="layer" id="layer1"><g id="g1" transform="translate(-1.5875001,-4.7625002)"><path style="fill: none; stroke: rgb(0, 0, 0); stroke-width: 2.5; stroke-linecap: round; stroke-linejoin: round; stroke-opacity: 1;" d="M 40.082754,78.285381 C 41.841401,77.044233 44.389589,76.683041 46.367565,77.570757 47.466039,78.063759 48.075338,78.809615 48.462501,79.808973" id="path26" inkscape:label="r eye" class="QKJSLncK_0"></path><path style="fill: none; stroke: rgb(0, 0, 0); stroke-width: 2.5; stroke-linecap: round; stroke-linejoin: round; stroke-opacity: 1;" d="M 68.840522,82.094359 C 69.127712,81.127457 69.529684,80.552973 70.364844,79.961363 70.999141,79.512046 71.88346,79.194999 72.6495,79.001473 74.597549,78.509319 77.201211,78.794327 78.93431,79.786191 79.915939,80.347979 80.45411,81.028153 81.219696,81.903906" id="path27" inkscape:label="l eye" class="QKJSLncK_1"></path><path id="path29" style="fill: none; stroke: rgb(0, 0, 0); stroke-width: 2.5; stroke-linecap: round; stroke-linejoin: round; stroke-opacity: 1;" d="M 46.938911,105.13866 C 47.551032,105.6159 48.229483,106.09071 49.419031,106.38324 50.608578,106.67577 52.649393,107.15656 54.747312,107.44887 56.36258,107.67395 57.982218,107.70321 59.547096,107.88786 60.184432,107.96302 60.947673,107.99509 61.603467,107.99509 62.316633,107.99509 63.562087,108.07936 64.30673,108.00846 65.595581,107.92527 67.243519,107.93001 69.03097,107.69532 70.878146,107.45278 72.945304,107.50025 74.744432,107.28798 75.21746,107.23216 76.631117,107.24342 76.911963,107.53896 V 107.53896 C 77.323052,107.97155 77.140883,108.41393 76.756637,108.94764 76.091269,109.87182 74.762571,110.90109 73.792193,111.58645 69.542458,114.58793 64.402445,116.21137 59.318082,115.98674 55.385536,115.813 51.820591,113.07517 49.857065,109.89988 49.509464,109.33776 48.592925,107.6285 48.484514,106.88842" sodipodi:nodetypes="csccscscccssssc" inkscape:label="lips" class="QKJSLncK_2"></path><path style="fill: none; stroke: rgb(0, 0, 0); stroke-width: 2.5; stroke-linecap: round; stroke-linejoin: round; stroke-opacity: 1;" d="M 56.651799,79.428073 C 56.302787,80.844746 55.410505,83.912331 54.556718,85.90333 53.483019,88.40717 52.116784,91.111416 51.212397,93.711736 50.956435,94.447676 50.930618,95.015126 50.939069,95.806666 50.995969,101.13781 56.878346,100.8929 60.651224,99.614916 62.452291,99.004836 63.910445,97.950906 65.412444,96.758906" id="path28" inkscape:label="nose" class="QKJSLncK_3"></path><path style="fill: none; stroke: rgb(0, 0, 0); stroke-width: 2.5; stroke-linecap: round; stroke-linejoin: round; stroke-opacity: 1;" d="M 39.892309,65.334871 C 41.266496,64.320145 42.949301,63.26678 45.605772,63.653158 47.441754,63.920192 48.573131,64.671425 49.986095,65.334871" id="path16" inkscape:label="right eye brow" class="QKJSLncK_4"></path><path style="fill: none; stroke: rgb(0, 0, 0); stroke-width: 2.5; stroke-linecap: round; stroke-linejoin: round; stroke-opacity: 1;" d="M 70.364115,65.715763 72.839949,65.334871 76.648928,65.579691 78.934314,66.110915 80.855171,66.661034" id="path17" inkscape:label="l eyebrow" class="QKJSLncK_5"></path><path style="fill: none; stroke: rgb(0, 0, 0); stroke-width: 2.5; stroke-linecap: round; stroke-linejoin: round; stroke-opacity: 1;" d="M 57.223146,35.815299 C 56.365028,35.65599 56.122887,35.62635 55.128209,35.62485 54.557625,35.62397 54.224891,35.59531 53.60462,35.65733 51.04193,35.913571 48.605426,37.137563 46.748463,38.7292 46.01985,39.353715 45.570782,39.849714 44.843975,40.576518 43.59333,41.827167 42.678271,42.732021 41.671302,44.19505 38.235115,49.187519 35.579819,55.036826 35.528759,61.205675 L 35.275532,64.520649 C 35.222767,65.387147 35.165031,65.864904 35.130941,66.287114 35.013787,67.738187 35.04882,68.657293 35.131086,69.715192 35.213352,70.773091 35.257819,71.464576 35.391103,72.470014 35.400903,74.500293 35.465045,77.684047 35.005,79.808973 34.535027,81.979759 33.392082,85.39325 33.036149,85.953637 32.680216,86.514024 32.274762,88.650585 32.274354,89.712308 32.274105,90.360936 32.274354,90.647556 32.274354,91.235896 32.274354,91.978846 32.274023,92.462056 32.274354,93.330836 32.274772,94.427766 32.382853,95.464756 32.546218,96.568466 32.706351,97.650316 32.90331,98.602006 33.155476,99.615636 34.468694,104.89441 36.57486,109.6462 38.987086,114.47065 39.47911,115.4547 40.726321,117.74561 41.173279,118.66053 41.419732,119.16502 41.618042,119.64295 41.961819,120.13813 42.2833,120.60121 42.540055,121.04979 42.873212,121.52005 43.517906,122.43004 44.866409,123.9943 45.499084,124.94533 46.102943,125.85306 45.976309,125.75713 46.607229,126.4431 47.130474,127.01199 47.401125,127.48348 47.764337,127.85423 48.174718,128.27314 48.781548,129.17366 49.257361,129.70655 52.5195,133.36007 56.64791,134.80078 61.413018,135.26191 72.227671,136.30845 81.061569,131.33555 89.599438,125.64364 90.966056,124.73257 92.253401,123.84442 93.598863,122.82571 94.992545,121.77049 96.773239,120.24143 97.979188,119.04128 98.479667,118.5432 98.845915,118.18354 99.309543,117.70829 100.1329,116.86424 101.58625,115.05672 102.45706,114.19839 103.41216,113.25698 103.50218,113.20468 104.32071,112.14545 104.85128,111.45888 105.36012,109.78176 105.67796,108.94764 106.4097,107.0273 107.44142,104.64583 108.76791,101.96157" id="path2" sodipodi:nodetypes="ccscssccsscsssssssssssssssscssssssc" inkscape:label="base" class="QKJSLncK_6"></path><path style="fill: none; stroke: rgb(0, 0, 0); stroke-width: 2.5; stroke-linecap: round; stroke-linejoin: round; stroke-opacity: 1;" d="M 61.303162,29.467969 C 63.062291,26.742267 67.510995,22.918429 69.983069,21.330906 71.591939,20.29772 76.898355,17.652867 78.93431,16.90282 80.852393,16.234495 83.333436,15.647747 85.409567,15.62773 86.229146,15.61983 86.610694,15.515534 87.504507,15.454322 90.930267,15.219725 94.423142,15.977998 97.598288,16.96573 100.20899,17.777869 102.64479,18.89378 105.21623,20.008052 110.22244,22.177359 114.6739,25.828829 118.54751,29.72094 119.2078,30.384384 119.56621,30.785833 120.12282,31.43498 120.69073,32.097308 121.42814,32.985468 122.01365,33.720365 122.9178,34.855188 123.67663,35.971691 124.45099,37.148443 125.79323,39.188165 126.9581,41.408003 127.87744,43.623704 129.01942,46.37592 129.85012,49.464299 130.13271,52.384346 130.57609,56.966066 129.45514,61.295896 127.57678,65.525313 126.89686,67.056269 126.00491,68.905793 125.16942,70.286531" id="path42" sodipodi:nodetypes="cscsssssssssssc" inkscape:label="hair 4" class="QKJSLncK_7"></path><path style="fill: none; stroke: rgb(0, 0, 0); stroke-width: 2.5; stroke-linecap: round; stroke-linejoin: round; stroke-opacity: 1;" d="M 107.69207,84.760637 C 108.11764,82.704316 109.18455,79.95526 110.10972,77.90448 110.46074,77.126377 111.16568,75.640003 111.56409,75.047756 112.6913,73.372134 113.08623,72.807302 114.54824,71.836875 116.34438,70.564955 118.42948,69.495935 120.6426,69.495935 122.64932,69.495935 123.12487,70.003225 124.10422,70.659049 125.08358,71.314874 125.63776,72.00057 125.63776,72.00057 126.0713,72.768236 126.62114,73.769221 126.88758,74.666856 128.08566,78.703315 127.63027,84.241635 125.82586,87.99827 125.2697,89.156165 124.62339,90.171718 123.85127,91.235896 122.23857,93.458596 121.04829,96.190736 119.11621,98.084556 118.15872,99.023086 117.08154,99.784876 115.88137,100.47943 115.15814,100.89796 114.18995,101.27868 113.40554,101.48986 112.72036,101.67435 110.64985,101.93804 108.94341,101.68887" id="path13" sodipodi:nodetypes="csscssccsssssc" inkscape:label="ear" class="QKJSLncK_8"></path><path style="fill: none; stroke: rgb(0, 0, 0); stroke-width: 2.5; stroke-linecap: round; stroke-linejoin: round; stroke-opacity: 1;" d="M 123.88023,75.999995 C 122.85617,74.406653 121.2384,74.130139 119.4999,75.136213 117.73037,76.160231 116.26113,77.84321 115.4101,79.808973 115.16916,80.365506 114.89652,81.198271 115.14206,81.68525 115.36565,82.128693 115.68674,82.165569 116.07197,82.300094 116.68116,82.512811 117.30062,83.096099 117.58218,83.808549 118.06561,85.031745 118.45723,86.687272 117.9071,87.99827 117.17847,89.734673 115.55148,91.009986 113.97689,91.997696" id="path22" inkscape:label="ear 2" class="QKJSLncK_9"></path><path style="fill: none; stroke: rgb(0, 0, 0); stroke-width: 2.5; stroke-linecap: round; stroke-linejoin: round; stroke-opacity: 1;" d="M 61.228214,29.746092 C 62.665772,28.898778 65.411211,29.107538 66.555136,29.482739 69.362478,30.403529 71.370652,32.43916 72.876541,34.863057 74.670911,37.751302 76.40116,40.746781 77.935039,43.81415 79.766385,47.476382 82.323944,50.636519 85.219121,53.527039 86.036246,54.342853 86.747314,54.998424 87.694953,55.690454 88.780025,56.482845 89.647752,56.954534 90.742131,57.602 92.764362,58.79839 95.158302,59.738313 97.407842,60.354238 100.34388,61.158088 103.63768,61.709663 106.54938,61.144988" id="path1" sodipodi:nodetypes="csssssscc" inkscape:label="hair 2" class="QKJSLncK_10"></path><path style="fill: none; stroke: rgb(0, 0, 0); stroke-width: 2.5; stroke-linecap: round; stroke-linejoin: round; stroke-opacity: 1;" d="M 71.316355,19.817601 C 70.793458,19.223006 69.896045,18.889915 67.697829,18.864625 67.135142,18.858155 66.802956,18.782665 66.174239,18.783665 64.724338,18.78599 63.159791,19.30519 61.793916,19.754856 60.381097,20.21997 59.070326,20.846623 57.794492,21.484622 53.693037,23.535621 50.12221,26.511136 47.331318,29.658315" id="path10" inkscape:label="hair 5" sodipodi:nodetypes="cscssc" class="QKJSLncK_11"></path><path style="fill: none; stroke: rgb(0, 0, 0); stroke-width: 2.5; stroke-linecap: round; stroke-linejoin: round; stroke-opacity: 1;" d="M 57.794496,30.482743 C 53.775113,29.94105 49.047604,29.7536 44.843979,31.325361 39.641451,33.270614 35.397463,37.792982 32.681852,42.671465 30.58684,46.43506 29.606375,50.43411 29.608075,54.66974 29.608315,55.300859 29.593775,55.761995 29.691695,56.383779 30.077282,58.832402 31.490718,61.593428 33.243796,63.427445" id="path9" sodipodi:nodetypes="csscsc" inkscape:label="hair 3" class="QKJSLncK_12"></path><path id="path7" style="fill: none; stroke: rgb(0, 0, 0); stroke-width: 2.5; stroke-linecap: round; stroke-linejoin: round; stroke-opacity: 1;" d="M 31.893456,72.952816 C 33.683373,70.389002 36.169806,69.072883 39.13051,68.360747 39.881007,68.190887 40.573825,68.190207 41.415896,68.191607 42.804567,68.193744 43.48909,68.225791 45.034423,68.780143 47.494356,69.662596 50.579791,72.291938 51.447668,73.333724 52.315545,74.375511 53.173396,75.760797 53.414169,76.571341 53.654942,77.381885 53.997774,79.543883 53.566562,81.713458 53.038515,84.370236 51.385537,86.952362 49.224296,88.588712 46.597355,90.577656 43.306435,91.509066 40.082754,90.892176 38.640364,90.616166 37.322072,90.10867 36.08333,89.31422 35.482104,88.92864 34.65297,88.252555 34.179725,87.801208 33.119177,86.507382 32.357443,84.973474 31.718142,83.427498 31.100142,81.653592 30.907759,78.457321 30.948711,77.523588 30.989663,76.589855 31.017799,74.206022 31.893456,72.952816" sodipodi:nodetypes="cccszzsssscczc" inkscape:label="glasses 2" class="QKJSLncK_13"></path><path style="fill: none; stroke: rgb(0, 0, 0); stroke-width: 2.5; stroke-linecap: round; stroke-linejoin: round; stroke-opacity: 1;" d="M 63.508362,77.424965 C 63.863541,75.927062 64.634186,74.535044 66.174971,73.200428 69.167645,70.608196 72.841292,69.8329 76.839371,70.113121 78.635511,70.239014 80.428513,70.887056 81.981489,71.786469 84.504447,73.247662 87.564797,76.490951 87.691433,79.237625 87.769663,80.934424 87.779723,82.174889 87.467026,83.808396 86.966249,86.424417 86.25968,88.715648 84.075694,90.607386 82.047387,92.364286 79.349912,93.242676 76.839371,93.601376 76.327833,93.674476 76.035959,93.722976 75.506232,93.678676 73.592144,93.518566 71.497029,93.172096 69.792765,92.211806 68.316025,91.379726 66.978432,90.073789 65.962483,88.76007 64.465442,86.824259 63.510848,84.844668 63.334553,82.284813 63.21347,80.526657 63.153183,78.922869 63.508362,77.424965" id="path11" sodipodi:nodetypes="cssssssscsssc" inkscape:label="glasses 4" class="QKJSLncK_14"></path><path style="fill: none; stroke: rgb(0, 0, 0); stroke-width: 2.5; stroke-linecap: round; stroke-linejoin: round; stroke-opacity: 1;" d="M 53.414169,76.571349 C 54.721018,75.888937 56.25509,75.071868 57.900581,75.114478 59.243005,75.149266 61.070833,75.622557 62.840161,76.786001" id="path39" sodipodi:nodetypes="ccc" inkscape:label="glasses 3" class="QKJSLncK_15"></path><path style="fill: none; stroke: rgb(0, 0, 0); stroke-width: 2.5; stroke-linecap: round; stroke-linejoin: round; stroke-opacity: 1;" d="M 29.624811,72.86351 C 29.974728,72.864984 31.496991,72.807668 31.893456,72.952816" id="path8" sodipodi:nodetypes="cc" class="QKJSLncK_16"></path><path style="fill: none; stroke: rgb(0, 0, 0); stroke-width: 2.5; stroke-linecap: round; stroke-linejoin: round; stroke-opacity: 1;" d="M 33.81461,71.048804 C 34.303861,70.89776 29.274894,72.862036 29.624811,72.86351" id="path3" sodipodi:nodetypes="cc" class="QKJSLncK_17"></path><path id="path40" style="fill: none; stroke: rgb(0, 0, 0); stroke-width: 2.5; stroke-linecap: round; stroke-linejoin: round; stroke-opacity: 1;" d="M 87.885399,77.90448 C 88.54924,77.818759 89.216033,77.676489 90.361238,77.447476 91.928603,77.134029 93.524378,76.850921 95.122456,76.533285 96.882354,76.183481 100.41192,75.551685 101.21653,75.344445 102.02114,75.137205 103.83892,74.686339 104.264,74.58809 104.68908,74.48984 109.23123,73.265727 110.35835,73.157669 111.29056,73.068309 111.55239,73.02879 112.4533,73.018646" sodipodi:nodetypes="csszzsc" inkscape:label="glasses 5" class="QKJSLncK_18"></path><path style="fill: none; stroke: rgb(0, 0, 0); stroke-width: 2.5; stroke-linecap: round; stroke-linejoin: round; stroke-opacity: 1;" d="M 60.841677,33.339475 C 62.516711,34.318233 63.793459,35.60174 64.67343,37.148451 65.308581,38.264839 65.272663,39.128065 65.77233,40.195632 66.306298,41.336491 66.644064,41.846351 67.126486,43.052365 69.107095,48.003705 71.147725,53.109804 74.110345,57.526471 75.488206,59.580584 77.726617,62.297673 79.304771,64.001729 80.310139,65.087305 80.11511,64.901508 81.080846,65.655901 81.554241,66.025694 82.171465,66.403226 82.743286,66.591448 83.525522,66.848915 84.427986,67.340882 85.219126,67.658316 86.995608,68.371112 88.161248,68.689367 88.807088,69.125484 89.052822,69.291413 89.219968,69.401811 89.408996,69.524746" id="path12" inkscape:label="hair 1" class="QKJSLncK_19"></path><path style="fill: none; stroke: rgb(0, 0, 0); stroke-width: 2.5; stroke-linecap: round; stroke-linejoin: round; stroke-opacity: 1;" d="M 64.650649,42.861902 C 64.673369,44.700079 64.426683,47.930362 64.705019,50.289405 64.767959,50.822782 64.823811,51.281521 64.843153,51.812998 64.924973,54.061105 65.418963,56.141496 66.289304,58.288255 66.961257,59.945673 67.344183,60.241435 68.269174,61.716333" id="path14" inkscape:label="hair 6" class="QKJSLncK_20"></path><path style="fill: none; stroke: rgb(0, 0, 0); stroke-width: 2.5; stroke-linecap: round; stroke-linejoin: round; stroke-opacity: 1;" d="M 76.648924,48.38492 C 76.771946,51.076995 80.229522,56.555969 83.124331,59.43022 85.924595,62.210588 89.389686,64.181613 93.027516,65.515176 94.214405,65.950264 95.419915,66.264286 96.646041,66.51547 97.605701,66.780102 98.117948,66.798345 99.502771,66.899604 100.05984,66.940337 100.63407,66.882254 101.78816,66.668006" id="path15" inkscape:label="hair 7" sodipodi:nodetypes="cssssc" class="QKJSLncK_21"></path><path id="path18" style="fill: none; stroke: rgb(0, 0, 0); stroke-width: 2.5; stroke-linecap: round; stroke-linejoin: round; stroke-opacity: 1;" d="M 98.740983,67.429802 C 99.089937,68.244011 101.08297,71.132402 102.01286,72.95282 102.77077,74.436559 103.65526,77.472386 103.92027,78.856727 104.24208,80.535589 104.44998,82.380331 104.45444,83.998844" sodipodi:nodetypes="cssc" inkscape:label="hair 8" class="QKJSLncK_22"></path><path id="path30" style="fill: none; stroke: rgb(0, 0, 0); stroke-width: 2.5; stroke-linecap: round; stroke-linejoin: round; stroke-opacity: 1;" d="M 104.264,112.56617 C 104.39089,112.93087 104.53371,113.22298 104.42123,114.08976 104.3118,114.93303 103.263,117.78845 103.04533,118.85097 102.92836,119.42193 102.71522,120.27327 102.63915,120.75532 102.63915,120.75532 102.51135,121.49007 102.4528,122.11193 102.39424,122.73379 102.23781,123.91975 101.88073,125.70713 101.76861,126.2684 101.62539,127.40044 101.4991,127.99252 101.31966,128.83382 101.12733,129.22355 101.00167,130.08745 100.54111,133.25401 99.711772,136.74658 100.07412,139.99079" sodipodi:nodetypes="cssczsscc" inkscape:label="neck" class="QKJSLncK_23"></path><path style="fill: none; stroke: rgb(0, 0, 0); stroke-width: 2.5; stroke-linecap: round; stroke-linejoin: round; stroke-opacity: 1;" d="M 54.556862,118.85097 C 55.304505,119.6695 57.166344,120.85164 59.508531,121.1033 61.103627,121.27468 63.752026,120.45292 64.650648,120.37457" id="path31" inkscape:label="mouth 2" class="QKJSLncK_24"></path><path style="fill: none; stroke: rgb(0, 0, 0); stroke-width: 2.5; stroke-linecap: round; stroke-linejoin: round; stroke-opacity: 1;" d="M 41.606346,120.37457 C 40.367253,120.84204 37.149333,121.48882 34.55974,122.2238 31.744976,123.02269 28.943895,123.64726 26.179993,124.45481 23.050662,125.36914 20.718135,126.40805 17.609796,127.42117" id="path32" inkscape:label="shirt r" class="QKJSLncK_25"></path><path style="fill: none; stroke: rgb(0, 0, 0); stroke-width: 2.5; stroke-linecap: round; stroke-linejoin: round; stroke-opacity: 1;" d="M 102.85547,121.9011 C 104.01149,122.92944 106.4567,123.30356 107.88252,124.16958 108.71486,124.67512 111.33908,125.77068 112.22294,126.11391 115.27581,127.29941 118.27719,128.3061 122.16618,129.52096 125.50207,130.55762 128.99571,132.09769 132.45042,132.56329" id="path38" inkscape:label="shirt l" class="QKJSLncK_26"></path><path style="fill: none; stroke: rgb(0, 0, 0); stroke-width: 2.5; stroke-linecap: round; stroke-linejoin: round; stroke-opacity: 1;" d="M 46.177114,127.23072 C 46.177312,127.53146 46.131864,127.76744 46.209454,128.56415 46.256244,129.04464 46.40883,129.89794 46.520694,130.46835 46.835329,132.07268 48.312675,137.73411 49.526173,139.41698" id="path35" sodipodi:nodetypes="cssc" class="QKJSLncK_27"></path><path style="fill: none; stroke: rgb(0, 0, 0); stroke-width: 2.5; stroke-linecap: round; stroke-linejoin: round; stroke-opacity: 1;" d="M 39.053049,123.94523 C 39.053049,125.01868 38.690963,128.5601 38.781943,129.5161 39.278198,134.73083 39.732563,136.13485 42.228013,140.81572" id="path34" sodipodi:nodetypes="csc" class="QKJSLncK_28"></path><path style="fill: none; stroke: rgb(0, 0, 0); stroke-width: 2.5; stroke-linecap: round; stroke-linejoin: round; stroke-opacity: 1;" d="M 102.93086,131.99194 C 102.93086,132.8955 102.95016,133.37782 102.92786,134.27733 102.86616,136.79618 102.98481,139.05917 102.6979,140.3491" id="path37" sodipodi:nodetypes="ccc" class="QKJSLncK_29"></path><path style="fill: none; stroke: rgb(0, 0, 0); stroke-width: 2.5; stroke-linecap: round; stroke-linejoin: round; stroke-opacity: 1;" d="M 109.59656,130.6588 109.86769,133.51552 109.97747,135.80091 V 137.89585 L 109.48393,141.38122" id="path36" sodipodi:nodetypes="ccccc" class="QKJSLncK_30"></path></g></g><g inkscape:groupmode="layer" id="layer2" inkscape:label="Layer 2"></g><style data-made-with="vivus-instant">.QKJSLncK_0{stroke-dasharray:10 12;stroke-dashoffset:11;animation:QKJSLncK_draw 14ms linear 0ms forwards;}.QKJSLncK_1{stroke-dasharray:15 17;stroke-dashoffset:16;animation:QKJSLncK_draw 20ms linear 14ms forwards;}.QKJSLncK_2{stroke-dasharray:67 69;stroke-dashoffset:68;animation:QKJSLncK_draw 86ms linear 34ms forwards;}.QKJSLncK_3{stroke-dasharray:36 38;stroke-dashoffset:37;animation:QKJSLncK_draw 47ms linear 121ms forwards;}.QKJSLncK_4{stroke-dasharray:11 13;stroke-dashoffset:12;animation:QKJSLncK_draw 15ms linear 168ms forwards;}.QKJSLncK_5{stroke-dasharray:11 13;stroke-dashoffset:12;animation:QKJSLncK_draw 15ms linear 183ms forwards;}.QKJSLncK_6{stroke-dasharray:186 188;stroke-dashoffset:187;animation:QKJSLncK_draw 238ms linear 198ms forwards;}.QKJSLncK_7{stroke-dasharray:111 113;stroke-dashoffset:112;animation:QKJSLncK_draw 142ms linear 437ms forwards;}.QKJSLncK_8{stroke-dasharray:68 70;stroke-dashoffset:69;animation:QKJSLncK_draw 87ms linear 579ms forwards;}.QKJSLncK_9{stroke-dasharray:27 29;stroke-dashoffset:28;animation:QKJSLncK_draw 35ms linear 667ms forwards;}.QKJSLncK_10{stroke-dasharray:60 62;stroke-dashoffset:61;animation:QKJSLncK_draw 77ms linear 703ms forwards;}.QKJSLncK_11{stroke-dasharray:28 30;stroke-dashoffset:29;animation:QKJSLncK_draw 36ms linear 781ms forwards;}.QKJSLncK_12{stroke-dasharray:53 55;stroke-dashoffset:54;animation:QKJSLncK_draw 68ms linear 818ms forwards;}.QKJSLncK_13{stroke-dasharray:73 75;stroke-dashoffset:74;animation:QKJSLncK_draw 94ms linear 887ms forwards;}.QKJSLncK_14{stroke-dasharray:77 79;stroke-dashoffset:78;animation:QKJSLncK_draw 99ms linear 981ms forwards;}.QKJSLncK_15{stroke-dasharray:11 13;stroke-dashoffset:12;animation:QKJSLncK_draw 15ms linear 1080ms forwards;}.QKJSLncK_16{stroke-dasharray:3 5;stroke-dashoffset:4;animation:QKJSLncK_draw 5ms linear 1096ms forwards;}.QKJSLncK_17{stroke-dasharray:5 7;stroke-dashoffset:6;animation:QKJSLncK_draw 7ms linear 1101ms forwards;}.QKJSLncK_18{stroke-dasharray:26 28;stroke-dashoffset:27;animation:QKJSLncK_draw 34ms linear 1108ms forwards;}.QKJSLncK_19{stroke-dasharray:48 50;stroke-dashoffset:49;animation:QKJSLncK_draw 62ms linear 1143ms forwards;}.QKJSLncK_20{stroke-dasharray:20 22;stroke-dashoffset:21;animation:QKJSLncK_draw 26ms linear 1205ms forwards;}.QKJSLncK_21{stroke-dasharray:34 36;stroke-dashoffset:35;animation:QKJSLncK_draw 44ms linear 1232ms forwards;}.QKJSLncK_22{stroke-dasharray:18 20;stroke-dashoffset:19;animation:QKJSLncK_draw 24ms linear 1276ms forwards;}.QKJSLncK_23{stroke-dasharray:28 30;stroke-dashoffset:29;animation:QKJSLncK_draw 36ms linear 1301ms forwards;}.QKJSLncK_24{stroke-dasharray:11 13;stroke-dashoffset:12;animation:QKJSLncK_draw 15ms linear 1338ms forwards;}.QKJSLncK_25{stroke-dasharray:26 28;stroke-dashoffset:27;animation:QKJSLncK_draw 34ms linear 1353ms forwards;}.QKJSLncK_26{stroke-dasharray:32 34;stroke-dashoffset:33;animation:QKJSLncK_draw 42ms linear 1387ms forwards;}.QKJSLncK_27{stroke-dasharray:13 15;stroke-dashoffset:14;animation:QKJSLncK_draw 17ms linear 1429ms forwards;}.QKJSLncK_28{stroke-dasharray:18 20;stroke-dashoffset:19;animation:QKJSLncK_draw 24ms linear 1447ms forwards;}.QKJSLncK_29{stroke-dasharray:9 11;stroke-dashoffset:10;animation:QKJSLncK_draw 12ms linear 1471ms forwards;}.QKJSLncK_30{stroke-dasharray:11 13;stroke-dashoffset:12;animation:QKJSLncK_draw 15ms linear 1484ms forwards;}@keyframes QKJSLncK_draw{100%{stroke-dashoffset:0;}}@keyframes QKJSLncK_fade{0%{stroke-opacity:1;}92.98245614035088%{stroke-opacity:1;}100%{stroke-opacity:0;}}</style></svg>
